<svg height="512" viewBox="0 0 64 64" width="512" xmlns="http://www.w3.org/2000/svg"><g id="Cooking-kitchen-utensil"><path d="m61 50h-2.03a27.023 27.023 0 0 0 -23.64-25.79 4 4 0 1 0 -6.66 0 27.023 27.023 0 0 0 -23.64 25.79h-2.03a1 1 0 0 0 -1 1v2a3.009 3.009 0 0 0 3 3h54a3.009 3.009 0 0 0 3-3v-2a1 1 0 0 0 -1-1zm-29-30a2 2 0 1 1 -2 2 2.006 2.006 0 0 1 2-2zm0 6a25.035 25.035 0 0 1 24.98 24h-44.95a20.044 20.044 0 0 1 2.35-8.47l-1.76-.95a21.983 21.983 0 0 0 -2.59 9.42h-3.01a25.035 25.035 0 0 1 24.98-24zm28 27a1 1 0 0 1 -1 1h-54a1 1 0 0 1 -1-1v-1h56z"/><path d="m16.761 38.047-1.522-1.3c-.375.44-.738.9-1.08 1.375l1.621 1.178q.467-.648.981-1.253z"/><path d="m42 47h8v2h-8z"/><path d="m52 47h2v2h-2z"/><path d="m13.751 16.661c1.561-1.774 3.329-3.784 3.329-7.661h-2c0 3.123-1.311 4.613-2.831 6.339-1.561 1.774-3.329 3.784-3.329 7.661h2c0-3.123 1.311-4.613 2.831-6.339z"/><path d="m18.92 23c0-3.123 1.311-4.613 2.831-6.339 1.561-1.774 3.329-3.784 3.329-7.661h-2c0 3.123-1.311 4.613-2.831 6.339-1.561 1.774-3.329 3.784-3.329 7.661z"/><path d="m44.751 16.661c1.561-1.774 3.329-3.784 3.329-7.661h-2c0 3.123-1.311 4.613-2.831 6.339-1.561 1.774-3.329 3.784-3.329 7.661h2c0-3.123 1.311-4.613 2.831-6.339z"/><path d="m49.92 23c0-3.123 1.311-4.613 2.831-6.339 1.561-1.774 3.329-3.784 3.329-7.661h-2c0 3.123-1.311 4.613-2.831 6.339-1.561 1.774-3.329 3.784-3.329 7.661z"/></g></svg>